<?xml version="1.0" standalone="no"?>
<!DOCTYPE svg PUBLIC "-//W3C//DTD SVG 20010904//EN"
 "http://www.w3.org/TR/2001/REC-SVG-20010904/DTD/svg10.dtd">
<svg version="1.0" xmlns="http://www.w3.org/2000/svg"
 width="600.000000pt" height="600.000000pt" viewBox="0 0 600.000000 600.000000"
 preserveAspectRatio="xMidYMid meet">
<metadata>
Created by potrace 1.15, written by Peter Selinger 2001-2017
</metadata>
<g transform="translate(0.000000,600.000000) scale(0.100000,-0.100000)"
fill="#000000" stroke="none">
<path d="M0 3000 l0 -3000 3000 0 3000 0 0 3000 0 3000 -3000 0 -3000 0 0
-3000z m3341 2405 c163 -25 274 -52 444 -111 88 -30 174 -58 190 -62 17 -4
303 -7 638 -7 l607 1 0 -631 0 -630 34 -87 c95 -243 153 -534 163 -818 10
-275 -54 -631 -162 -912 l-35 -90 0 -639 0 -639 -640 0 -639 0 -133 -44 c-211
-71 -356 -104 -553 -126 -55 -7 -101 -16 -103 -21 -5 -12 -299 -12 -304 0 -1
5 -50 15 -108 21 -167 18 -340 56 -503 113 l-152 52 -652 3 -653 3 0 632 0
632 -35 90 c-112 284 -160 549 -160 880 1 319 42 559 142 817 l47 123 6 635 5
635 620 1 620 1 93 37 c167 66 397 124 587 149 17 2 144 5 283 6 180 1 281 -3
353 -14z"/>
<path d="M2820 5334 c-134 -15 -224 -28 -285 -40 -115 -24 -228 -56 -217 -63
13 -8 1359 -7 1367 1 8 8 -228 64 -350 83 -94 15 -439 28 -515 19z"/>
<path d="M820 4623 l0 -558 51 95 c28 52 79 138 114 190 42 64 60 99 54 106
-5 7 -8 70 -7 140 l3 129 128 3 129 3 90 79 c153 136 328 259 471 331 31 16
57 31 57 34 0 3 -245 5 -545 5 l-545 0 0 -557z"/>
<path d="M2090 5156 c-209 -88 -470 -250 -625 -389 l-40 -36 85 -1 85 0 173
-275 173 -274 57 46 c236 193 544 319 835 342 394 31 726 -52 1033 -257 49
-33 110 -78 136 -101 25 -23 48 -41 51 -41 3 0 58 84 123 188 64 103 143 228
176 279 l60 92 79 3 79 3 -83 68 c-161 134 -398 278 -569 346 l-76 31 -849 0
-848 -1 -55 -23z"/>
<path d="M4175 5124 c168 -94 393 -262 489 -363 l30 -31 132 0 c96 0 135 -4
141 -12 4 -7 8 -66 8 -132 1 -98 -2 -120 -15 -128 -14 -9 -6 -25 51 -112 37
-55 90 -144 118 -196 l51 -95 0 563 0 562 -552 0 -553 0 100 -56z"/>
<path d="M2766 4505 c-226 -37 -440 -120 -622 -242 -85 -56 -164 -122 -164
-135 0 -10 994 -1595 1014 -1616 11 -11 38 26 143 195 72 114 211 336 310 493
99 157 269 427 378 600 l198 315 -54 48 c-166 148 -424 273 -678 328 -128 27
-398 35 -525 14z"/>
<path d="M1112 4383 c-79 -107 -150 -227 -221 -373 l-66 -135 -3 -862 -2 -862
45 -104 c53 -121 145 -282 230 -402 l60 -85 63 0 62 0 0 1445 0 1445 -59 0
-59 0 -50 -67z"/>
<path d="M4730 3005 l0 -1445 54 0 55 0 59 83 c103 143 190 300 256 457 l27
65 -3 850 -3 850 -76 155 c-62 127 -183 325 -252 413 -10 12 -29 17 -66 17
l-51 0 0 -1445z"/>
<path d="M1558 4238 c-3 -11 -3 -514 1 -550 0 -7 24 28 52 77 28 50 69 115 91
146 l39 57 -87 138 c-48 77 -88 140 -89 142 -1 2 -4 -3 -7 -10z"/>
<path d="M4353 4107 c-51 -80 -93 -151 -93 -156 0 -5 25 -49 56 -97 30 -49 72
-123 92 -164 l37 -75 3 163 c1 90 1 234 0 320 l-3 156 -92 -147z"/>
<path d="M1736 3864 c-20 -27 -69 -114 -108 -193 l-73 -144 1 -526 1 -526 36
-83 c172 -392 508 -700 912 -836 149 -51 249 -67 432 -73 190 -6 280 3 438 44
267 70 492 199 690 398 165 164 291 363 360 568 l25 76 0 431 0 431 -25 75
c-39 116 -181 384 -203 384 -4 0 -275 -427 -603 -948 -415 -659 -602 -948
-615 -950 -15 -2 -139 188 -614 944 -327 521 -600 954 -606 962 -10 13 -17 8
-48 -34z"/>
<path d="M746 3628 c-60 -213 -79 -360 -80 -613 -1 -174 3 -257 17 -340 17
-112 67 -329 86 -375 7 -17 10 205 10 703 1 400 0 727 -2 727 -1 0 -16 -46
-31 -102z"/>
<path d="M5222 3000 l0 -715 19 65 c32 106 57 229 74 354 17 136 20 440 5 566
-14 110 -54 308 -79 385 l-19 60 0 -715z"/>
<path d="M4412 2328 c-75 -165 -239 -383 -380 -503 -217 -187 -456 -305 -742
-366 -152 -33 -448 -33 -600 0 -469 101 -841 370 -1075 779 -35 61 -54 86 -57
75 -2 -10 -4 -182 -3 -383 l0 -365 100 -2 c159 -4 146 9 143 -146 l-3 -132
-182 -3 c-101 -1 -183 -6 -183 -10 1 -12 155 -133 268 -210 59 -40 176 -108
260 -150 l154 -77 886 0 887 0 115 56 c190 92 404 232 530 347 l45 41 -183 1
-183 0 3 138 3 137 118 3 117 3 0 414 c0 228 -2 415 -5 415 -3 0 -18 -28 -33
-62z"/>
<path d="M5135 1882 c-22 -42 -76 -131 -120 -198 -75 -113 -79 -122 -60 -130
18 -8 20 -19 20 -124 1 -63 -1 -123 -3 -132 -4 -16 -19 -18 -144 -18 l-140 0
-97 -84 c-121 -105 -284 -220 -426 -299 l-109 -62 558 -3 c308 -1 561 -1 563
1 2 2 2 256 1 565 l-3 561 -40 -77z"/>
<path d="M820 1392 l0 -562 555 0 c305 0 555 4 555 8 0 4 -25 20 -55 35 -140
68 -366 226 -496 346 l-66 60 -139 3 -139 3 -3 124 c-2 99 0 127 12 140 14 16
10 25 -43 102 -32 46 -86 133 -120 194 l-61 110 0 -563z"/>
<path d="M2316 771 c13 -12 149 -46 284 -72 161 -30 513 -38 690 -15 135 18
376 72 386 87 3 5 -272 9 -682 9 -389 0 -684 -4 -678 -9z"/>
</g>
</svg>
